<svg width="100" height="109" version="1.1" xmlns="http://www.w3.org/2000/svg" desc="Created with imagetracer.js version 1.2.6" ><path fill="rgb(0,19,108)" stroke="rgb(0,19,108)" stroke-width="1" opacity="0.011764705882352941" d="M 10.5 76 Q 13.3 77.3 11 78.5 L 10.5 96 L 10.5 76 Z " /><path fill="rgb(0,19,108)" stroke="rgb(0,19,108)" stroke-width="1" opacity="0.011764705882352941" d="M 19.5 77 L 20.5 79 L 19.5 77 Z " /><path fill="rgb(0,19,108)" stroke="rgb(0,19,108)" stroke-width="1" opacity="0.011764705882352941" d="M 78.5 78 L 77.5 80 L 78.5 78 Z " /><path fill="rgb(0,19,108)" stroke="rgb(0,19,108)" stroke-width="1" opacity="0.011764705882352941" d="M 15.5 83 L 16.5 85 L 15.5 83 Z " /><path fill="rgb(0,19,108)" stroke="rgb(0,19,108)" stroke-width="1" opacity="0.011764705882352941" d="M 49.5 84 L 50.5 86 L 49.5 84 Z " /><path fill="rgb(0,19,108)" stroke="rgb(0,19,108)" stroke-width="1" opacity="0.011764705882352941" d="M 22.5 98 L 25 98.5 L 22.5 99 L 22.5 98 Z " /><path fill="rgb(0,19,108)" stroke="rgb(0,19,108)" stroke-width="1" opacity="0.011764705882352941" d="M 29.5 98 L 38.5 98 L 39.5 99 Q 40.7 96.8 45.5 98 L 45.5 99 Q 39.4 97.8 40 100.5 L 39 100.5 Q 39.5 97.5 32.5 99 L 30.5 99 L 28.5 100 L 29.5 98 Z " /><path fill="rgb(0,19,108)" stroke="rgb(0,19,108)" stroke-width="1" opacity="0.011764705882352941" d="M 49.5 98 L 53 99.5 L 51.5 99 Q 48.5 99.5 49.5 98 Z " /><path fill="rgb(0,19,108)" stroke="rgb(0,19,108)" stroke-width="1" opacity="0.011764705882352941" d="M 55.5 98 L 58 98.5 L 55.5 99 L 55.5 98 Z " /><path fill="rgb(0,19,108)" stroke="rgb(0,19,108)" stroke-width="1" opacity="0.011764705882352941" d="M 59.5 98 L 63 98.5 L 59.5 99 L 59.5 98 Z " /><path fill="rgb(0,19,108)" stroke="rgb(0,19,108)" stroke-width="1" opacity="0.011764705882352941" d="M 66.5 98 L 70 98.5 L 66.5 99 L 66.5 98 Z " /><path fill="rgb(0,19,108)" stroke="rgb(0,19,108)" stroke-width="1" opacity="0.011764705882352941" d="M 71.5 98 L 83 98.5 L 71.5 99 L 71.5 98 Z " /><path fill="rgb(0,19,108)" stroke="rgb(0,19,108)" stroke-width="1" opacity="0.011764705882352941" d="M 86.5 98 L 97.5 98 L 98 100.5 L 97 100.5 L 96.5 99 L 86.5 99 L 86.5 98 Z " /><path fill="rgb(0,19,108)" stroke="rgb(0,19,108)" stroke-width="1" opacity="0.011764705882352941" d="M 22.5 103 L 23.5 105 Q 20.7 105.7 22.5 103 Z " /><path fill="rgb(0,19,108)" stroke="rgb(0,19,108)" stroke-width="1" opacity="0.011764705882352941" d="M 82.5 104 Q 85.3 105.3 83 106.5 L 82.5 109 L 82.5 104 Z " /><path fill="rgb(0,19,108)" stroke="rgb(0,19,108)" stroke-width="1" opacity="0.011764705882352941" d="M 43.5 105 L 44.5 107 L 43.5 105 Z " /><path fill="rgb(0,19,108)" stroke="rgb(0,19,108)" stroke-width="1" opacity="0.011764705882352941" d="M 39.5 106 L 40 108.5 L 39 108.5 L 39.5 106 Z " /><path fill="rgb(0,19,108)" stroke="rgb(0,19,108)" stroke-width="1" opacity="0.011764705882352941" d="M 13.5 107 L 14.5 109 L 13.5 107 Z " /><path fill="rgb(0,19,108)" stroke="rgb(0,19,108)" stroke-width="1" opacity="0.011764705882352941" d="M 21.5 107 L 20.5 109 L 21.5 107 Z " /><path fill="rgb(214,20,57)" stroke="rgb(214,20,57)" stroke-width="1" opacity="0.7803921568627451" d="M 33.5 2 L 35 2.5 L 32.5 4 L 33.5 2 Z " /><path fill="rgb(214,20,57)" stroke="rgb(214,20,57)" stroke-width="1" opacity="0.7803921568627451" d="M 65.5 2 L 68 3.5 L 66.5 3 L 65.5 2 Z " /><path fill="rgb(214,20,57)" stroke="rgb(214,20,57)" stroke-width="1" opacity="0.7803921568627451" d="M 31.5 7 L 32 9.5 L 31 9.5 L 31.5 7 Z " /><path fill="rgb(214,20,57)" stroke="rgb(214,20,57)" stroke-width="1" opacity="0.7803921568627451" d="M 15.5 11 L 16 15.5 L 15 15.5 L 15.5 11 Z " /><path fill="rgb(214,20,57)" stroke="rgb(214,20,57)" stroke-width="1" opacity="0.7803921568627451" d="M 84.5 11 L 85 15.5 L 84 15.5 L 84.5 11 Z " /><path fill="rgb(214,20,57)" stroke="rgb(214,20,57)" stroke-width="1" opacity="0.7803921568627451" d="M 33.5 15 L 34.5 17 L 33.5 15 Z " /><path fill="rgb(214,20,57)" stroke="rgb(214,20,57)" stroke-width="1" opacity="0.7803921568627451" d="M 66.5 15 L 65.5 17 L 66.5 15 Z " /><path fill="rgb(214,20,57)" stroke="rgb(214,20,57)" stroke-width="1" opacity="0.7803921568627451" d="M 27.5 17 L 28 26.5 L 27 26.5 L 27.5 17 Z " /><path fill="rgb(214,20,57)" stroke="rgb(214,20,57)" stroke-width="1" opacity="0.7803921568627451" d="M 30.5 17 L 31 27.5 L 30 27.5 L 30.5 17 Z " /><path fill="rgb(214,20,57)" stroke="rgb(214,20,57)" stroke-width="1" opacity="0.7803921568627451" d="M 69.5 17 L 70 27.5 L 69 27.5 L 69.5 17 Z " /><path fill="rgb(214,20,57)" stroke="rgb(214,20,57)" stroke-width="1" opacity="0.7803921568627451" d="M 72.5 17 L 73 26.5 L 72 26.5 L 72.5 17 Z " /><path fill="rgb(214,20,57)" stroke="rgb(214,20,57)" stroke-width="1" opacity="0.7803921568627451" d="M 40.5 20 L 45 25.5 L 40 21.5 L 40.5 20 Z " /><path fill="rgb(214,20,57)" stroke="rgb(214,20,57)" stroke-width="1" opacity="0.7803921568627451" d="M 36.5 21 L 42.5 28 L 36.5 21 Z " /><path fill="rgb(214,20,57)" stroke="rgb(214,20,57)" stroke-width="1" opacity="0.7803921568627451" d="M 59.5 21 L 55.5 26 L 59.5 21 Z " /><path fill="rgb(214,20,57)" stroke="rgb(214,20,57)" stroke-width="1" opacity="0.7803921568627451" d="M 63.5 21 L 57.5 28 L 63.5 21 Z " /><path fill="rgb(214,20,57)" stroke="rgb(214,20,57)" stroke-width="1" opacity="0.7803921568627451" d="M 10.5 22 L 14 22.5 L 10.5 23 L 10.5 22 Z " /><path fill="rgb(214,20,57)" stroke="rgb(214,20,57)" stroke-width="1" opacity="0.7803921568627451" d="M 86.5 22 L 90 22.5 L 86.5 23 L 86.5 22 Z " /><path fill="rgb(214,20,57)" stroke="rgb(214,20,57)" stroke-width="1" opacity="0.7803921568627451" d="M 6.5 29 L 7.5 31 L 6.5 29 Z " /><path fill="rgb(214,20,57)" stroke="rgb(214,20,57)" stroke-width="1" opacity="0.7803921568627451" d="M 93.5 29 L 92.5 31 L 93.5 29 Z " /><path fill="rgb(214,20,57)" stroke="rgb(214,20,57)" stroke-width="1" opacity="0.7803921568627451" d="M 44.5 30 L 45.5 32 L 44.5 30 Z " /><path fill="rgb(214,20,57)" stroke="rgb(214,20,57)" stroke-width="1" opacity="0.7803921568627451" d="M 55.5 30 L 54.5 32 L 55.5 30 Z " /><path fill="rgb(214,20,57)" stroke="rgb(214,20,57)" stroke-width="1" opacity="0.7803921568627451" d="M 28.5 32 L 29 34.5 L 28 34.5 L 28.5 32 Z " /><path fill="rgb(214,20,57)" stroke="rgb(214,20,57)" stroke-width="1" opacity="0.7803921568627451" d="M 71.5 32 L 72 34.5 L 71 34.5 L 71.5 32 Z " /><path fill="rgb(214,20,57)" stroke="rgb(214,20,57)" stroke-width="1" opacity="0.7803921568627451" d="M 0.5 42 L 1.5 44 L 0.5 42 Z " /><path fill="rgb(214,20,57)" stroke="rgb(214,20,57)" stroke-width="1" opacity="0.7803921568627451" d="M 99.5 42 L 98.5 44 L 99.5 42 Z " /><path fill="rgb(214,20,57)" stroke="rgb(214,20,57)" stroke-width="1" opacity="0.7803921568627451" d="M 49.5 45 L 50 48.5 L 49 48.5 L 49.5 45 Z " /><path fill="rgb(214,20,57)" stroke="rgb(214,20,57)" stroke-width="1" opacity="0.7803921568627451" d="M 26.5 46 L 30.5 51 L 26.5 46 Z " /><path fill="rgb(214,20,57)" stroke="rgb(214,20,57)" stroke-width="1" opacity="0.7803921568627451" d="M 73.5 46 L 69.5 51 L 73.5 46 Z " /><path fill="rgb(214,20,57)" stroke="rgb(214,20,57)" stroke-width="1" opacity="0.7803921568627451" d="M 24.5 48 L 29.5 54 Q 27.3 54.8 28 52.5 L 24.5 48 Z " /><path fill="rgb(214,20,57)" stroke="rgb(214,20,57)" stroke-width="1" opacity="0.7803921568627451" d="M 33.5 48 L 34.5 50 L 33.5 48 Z " /><path fill="rgb(214,20,57)" stroke="rgb(214,20,57)" stroke-width="1" opacity="0.7803921568627451" d="M 66.5 48 L 65.5 50 L 66.5 48 Z " /><path fill="rgb(214,20,57)" stroke="rgb(214,20,57)" stroke-width="1" opacity="0.7803921568627451" d="M 75.5 48 L 72 52.5 Q 72.8 54.8 70.5 54 L 75.5 48 Z " /><path fill="rgb(214,20,57)" stroke="rgb(214,20,57)" stroke-width="1" opacity="0.7803921568627451" d="M 27.5 56 L 31 56.5 L 27.5 57 L 27.5 56 Z " /><path fill="rgb(214,20,57)" stroke="rgb(214,20,57)" stroke-width="1" opacity="0.7803921568627451" d="M 39.5 56 L 46 56.5 L 43.5 58 L 39.5 57 L 39.5 56 Z " /><path fill="rgb(214,20,57)" stroke="rgb(214,20,57)" stroke-width="1" opacity="0.7803921568627451" d="M 54.5 56 L 61 56.5 L 55.5 58 L 54.5 56 Z " /><path fill="rgb(214,20,57)" stroke="rgb(214,20,57)" stroke-width="1" opacity="0.7803921568627451" d="M 69.5 56 L 73 56.5 L 69.5 57 L 69.5 56 Z " /><path fill="rgb(214,20,57)" stroke="rgb(214,20,57)" stroke-width="1" opacity="0.7803921568627451" d="M 36.5 58 L 39 58.5 L 36.5 59 L 36.5 58 Z " /><path fill="rgb(214,20,57)" stroke="rgb(214,20,57)" stroke-width="1" opacity="0.7803921568627451" d="M 61.5 58 L 64 58.5 L 61.5 59 L 61.5 58 Z " /><path fill="rgb(214,20,57)" stroke="rgb(214,20,57)" stroke-width="1" opacity="0.7803921568627451" d="M 23.5 59 L 31 59.5 L 23.5 60 L 23.5 59 Z " /><path fill="rgb(214,20,57)" stroke="rgb(214,20,57)" stroke-width="1" opacity="0.7803921568627451" d="M 69.5 59 L 77 59.5 L 69.5 60 L 69.5 59 Z " /><path fill="rgb(217,19,56)" stroke="rgb(217,19,56)" stroke-width="1" opacity="0.23137254901960785" d="M 48.5 0 L 47.5 2 L 48.5 0 Z " /><path fill="rgb(217,19,56)" stroke="rgb(217,19,56)" stroke-width="1" opacity="0.23137254901960785" d="M 51.5 0 L 52.5 2 L 51.5 0 Z " /><path fill="rgb(217,19,56)" stroke="rgb(217,19,56)" stroke-width="1" opacity="0.23137254901960785" d="M 35.5 2 L 42 8.5 L 42 10.5 L 41 10.5 L 41 8.5 L 35.5 2 Z " /><path fill="rgb(217,19,56)" stroke="rgb(217,19,56)" stroke-width="1" opacity="0.23137254901960785" d="M 64.5 2 L 59 8.5 L 58.5 11 L 58 8.5 L 64.5 2 Z " /><path fill="rgb(217,19,56)" stroke="rgb(217,19,56)" stroke-width="1" opacity="0.23137254901960785" d="M 68.5 4 L 69 7.5 L 68 7.5 L 68.5 4 Z " /><path fill="rgb(217,19,56)" stroke="rgb(217,19,56)" stroke-width="1" opacity="0.23137254901960785" d="M 45.5 5 L 46 6.5 L 44.5 9 L 44 7.5 L 45.5 5 Z " /><path fill="rgb(217,19,56)" stroke="rgb(217,19,56)" stroke-width="1" opacity="0.23137254901960785" d="M 54.5 5 L 56 8.5 L 55 8.5 L 54.5 5 Z " /><path fill="rgb(217,19,56)" stroke="rgb(217,19,56)" stroke-width="1" opacity="0.23137254901960785" d="M 16.5 9 L 19 9.5 L 15.5 11 L 16.5 9 Z " /><path fill="rgb(217,19,56)" stroke="rgb(217,19,56)" stroke-width="1" opacity="0.23137254901960785" d="M 81.5 9 L 85 10.5 L 83.5 10 Q 80.5 10.5 81.5 9 Z " /><path fill="rgb(217,19,56)" stroke="rgb(217,19,56)" stroke-width="1" opacity="0.23137254901960785" d="M 30.5 10 Q 30.4 15.1 34 16.5 L 33 17.5 L 35.5 21 L 30 16.5 L 31.5 17 L 33 16.5 L 30 15 L 30.5 10 Z " /><path fill="rgb(217,19,56)" stroke="rgb(217,19,56)" stroke-width="1" opacity="0.23137254901960785" d="M 22.5 11 L 28 14.5 L 26.5 14 Q 22.5 13.5 22.5 11 Z " /><path fill="rgb(217,19,56)" stroke="rgb(217,19,56)" stroke-width="1" opacity="0.23137254901960785" d="M 69.5 11 L 70 15 L 67 16.5 L 68.5 17 L 70 16.5 L 64.5 21 L 67 17.5 L 66 16.5 L 69 13.5 L 69.5 11 Z " /><path fill="rgb(217,19,56)" stroke="rgb(217,19,56)" stroke-width="1" opacity="0.23137254901960785" d="M 77.5 11 L 76.5 13 L 71.5 16 L 73.5 13 L 77.5 11 Z " /><path fill="rgb(217,19,56)" stroke="rgb(217,19,56)" stroke-width="1" opacity="0.23137254901960785" d="M 15.5 16 L 16 19.5 L 15 19.5 L 15.5 16 Z " /><path fill="rgb(217,19,56)" stroke="rgb(217,19,56)" stroke-width="1" opacity="0.23137254901960785" d="M 84.5 16 L 85 19.5 L 84 19.5 L 84.5 16 Z " /><path fill="rgb(217,19,56)" stroke="rgb(217,19,56)" stroke-width="1" opacity="0.23137254901960785" d="M 35.5 17 Q 37.3 20.1 39 18.5 Q 39.8 20.8 37.5 20 L 35.5 17 Z " /><path fill="rgb(217,19,56)" stroke="rgb(217,19,56)" stroke-width="1" opacity="0.23137254901960785" d="M 64.5 17 L 62.5 20 Q 60.3 20.8 61 18.5 Q 62.8 20.1 64.5 17 Z " /><path fill="rgb(217,19,56)" stroke="rgb(217,19,56)" stroke-width="1" opacity="0.23137254901960785" d="M 59.5 18 L 60 20.5 L 59 20.5 L 59.5 18 Z " /><path fill="rgb(217,19,56)" stroke="rgb(217,19,56)" stroke-width="1" opacity="0.23137254901960785" d="M 4.5 21 L 9 21.5 L 4 22 Q 3.2 26.5 6 28.5 L 4 27.5 L 3 22.5 L 4.5 21 Z " /><path fill="rgb(217,19,56)" stroke="rgb(217,19,56)" stroke-width="1" opacity="0.23137254901960785" d="M 91.5 21 Q 96 20 97 22.5 Q 97.6 27.6 94.5 29 L 95 27.5 L 96 22 L 91.5 22 L 91.5 21 Z " /><path fill="rgb(217,19,56)" stroke="rgb(217,19,56)" stroke-width="1" opacity="0.23137254901960785" d="M 38.5 22 L 40.5 22 L 47 28.5 L 49 33 Q 51.7 34.1 51 31.5 L 59.5 22 L 62 22.5 L 54 28.5 L 54.5 30 L 57 28.5 L 52 31.5 L 52.5 33 L 54 32.5 L 51.5 37 L 51 35.5 L 52 33.5 L 50.5 34 L 48.5 33 L 48 34.5 L 49 36.5 L 48 36.5 L 46 32.5 L 48 32.5 L 46.5 30 Q 44.7 32.8 43 28.5 L 46 29.5 L 43.5 26 L 42.5 27 L 38.5 22 Z " /><path fill="rgb(217,19,56)" stroke="rgb(217,19,56)" stroke-width="1" opacity="0.23137254901960785" d="M 85.5 22 L 86 24.5 L 85 24.5 L 85.5 22 Z " /><path fill="rgb(217,19,56)" stroke="rgb(217,19,56)" stroke-width="1" opacity="0.23137254901960785" d="M 16.5 23 L 17 25.5 L 16 25.5 L 16.5 23 Z " /><path fill="rgb(217,19,56)" stroke="rgb(217,19,56)" stroke-width="1" opacity="0.23137254901960785" d="M 83.5 23 L 84 25.5 L 83 25.5 L 83.5 23 Z " /><path fill="rgb(217,19,56)" stroke="rgb(217,19,56)" stroke-width="1" opacity="0.23137254901960785" d="M 28.5 28 L 29 31.5 L 28 31.5 L 28.5 28 Z " /><path fill="rgb(217,19,56)" stroke="rgb(217,19,56)" stroke-width="1" opacity="0.23137254901960785" d="M 30.5 28 L 31 32.5 L 30 32.5 L 30.5 28 Z " /><path fill="rgb(217,19,56)" stroke="rgb(217,19,56)" stroke-width="1" opacity="0.23137254901960785" d="M 69.5 28 L 70 31.5 L 69 31.5 L 69.5 28 Z " /><path fill="rgb(217,19,56)" stroke="rgb(217,19,56)" stroke-width="1" opacity="0.23137254901960785" d="M 71.5 28 L 72 31.5 L 71 31.5 L 71.5 28 Z " /><path fill="rgb(217,19,56)" stroke="rgb(217,19,56)" stroke-width="1" opacity="0.23137254901960785" d="M 6.5 30 L 7.5 32 L 6.5 30 Z " /><path fill="rgb(217,19,56)" stroke="rgb(217,19,56)" stroke-width="1" opacity="0.23137254901960785" d="M 93.5 30 L 92.5 32 L 93.5 30 Z " /><path fill="rgb(217,19,56)" stroke="rgb(217,19,56)" stroke-width="1" opacity="0.23137254901960785" d="M 29.5 35 L 30 37.5 L 29 37.5 L 29.5 35 Z " /><path fill="rgb(217,19,56)" stroke="rgb(217,19,56)" stroke-width="1" opacity="0.23137254901960785" d="M 31.5 35 L 32 37.5 L 31 37.5 L 31.5 35 Z " /><path fill="rgb(217,19,56)" stroke="rgb(217,19,56)" stroke-width="1" opacity="0.23137254901960785" d="M 68.5 35 L 69 37.5 L 68 37.5 L 68.5 35 Z " /><path fill="rgb(217,19,56)" stroke="rgb(217,19,56)" stroke-width="1" opacity="0.23137254901960785" d="M 70.5 35 L 71 37.5 L 70 37.5 L 70.5 35 Z " /><path fill="rgb(217,19,56)" stroke="rgb(217,19,56)" stroke-width="1" opacity="0.23137254901960785" d="M 6.5 36 L 8 36.5 L 0.5 40 L 0.5 39 L 6.5 36 Z " /><path fill="rgb(217,19,56)" stroke="rgb(217,19,56)" stroke-width="1" opacity="0.23137254901960785" d="M 18.5 36 L 19.5 38 L 20.5 36 L 24 42.5 L 22 42.5 L 23 44.5 L 21 43.5 L 20 41.5 L 22 41.5 L 20.5 38 L 19.5 40 L 18.5 36 Z " /><path fill="rgb(217,19,56)" stroke="rgb(217,19,56)" stroke-width="1" opacity="0.23137254901960785" d="M 79.5 36 L 80.5 38 L 81.5 36 L 82 37.5 L 77.5 45 L 78 43.5 L 77.5 42 L 76 42.5 L 79.5 36 Z " /><path fill="rgb(217,19,56)" stroke="rgb(217,19,56)" stroke-width="1" opacity="0.23137254901960785" d="M 92.5 36 L 100 39.5 L 98.5 40 L 92.5 37 L 92.5 36 Z " /><path fill="rgb(217,19,56)" stroke="rgb(217,19,56)" stroke-width="1" opacity="0.23137254901960785" d="M 47.5 41 L 48 44.5 L 47 44.5 L 47.5 41 Z " /><path fill="rgb(217,19,56)" stroke="rgb(217,19,56)" stroke-width="1" opacity="0.23137254901960785" d="M 49.5 41 L 50 44.5 L 49 44.5 L 49.5 41 Z " /><path fill="rgb(217,19,56)" stroke="rgb(217,19,56)" stroke-width="1" opacity="0.23137254901960785" d="M 2.5 44 L 11 48.5 L 9.5 49 L 3.5 46 L 2.5 44 Z " /><path fill="rgb(217,19,56)" stroke="rgb(217,19,56)" stroke-width="1" opacity="0.23137254901960785" d="M 24.5 44 L 25.5 46 L 24.5 44 Z " /><path fill="rgb(217,19,56)" stroke="rgb(217,19,56)" stroke-width="1" opacity="0.23137254901960785" d="M 75.5 44 L 74.5 46 L 75.5 44 Z " /><path fill="rgb(217,19,56)" stroke="rgb(217,19,56)" stroke-width="1" opacity="0.23137254901960785" d="M 34.5 45 L 41 52.5 L 35.5 48 Q 34.3 50.3 33 47.5 L 35 47.5 L 34.5 45 Z " /><path fill="rgb(217,19,56)" stroke="rgb(217,19,56)" stroke-width="1" opacity="0.23137254901960785" d="M 65.5 45 L 65 46.5 L 65.5 48 L 67 47.5 Q 65.8 50.3 64.5 48 L 59 52.5 L 65.5 45 Z " /><path fill="rgb(217,19,56)" stroke="rgb(217,19,56)" stroke-width="1" opacity="0.23137254901960785" d="M 95.5 45 L 94.5 47 L 89.5 49 L 89.5 48 L 95.5 45 Z " /><path fill="rgb(217,19,56)" stroke="rgb(217,19,56)" stroke-width="1" opacity="0.23137254901960785" d="M 23.5 46 Q 25 49.5 26.5 47 L 30 50.5 L 29 51.5 L 30.5 54 L 23.5 46 Z " /><path fill="rgb(217,19,56)" stroke="rgb(217,19,56)" stroke-width="1" opacity="0.23137254901960785" d="M 76.5 46 L 69.5 54 L 71 51.5 L 70 50.5 L 73.5 47 Q 75 49.5 76.5 46 Z " /><path fill="rgb(217,19,56)" stroke="rgb(217,19,56)" stroke-width="1" opacity="0.23137254901960785" d="M 47.5 48 L 48 50.5 L 47 50.5 L 47.5 48 Z " /><path fill="rgb(217,19,56)" stroke="rgb(217,19,56)" stroke-width="1" opacity="0.23137254901960785" d="M 35.5 50 L 38.5 54 L 35.5 50 Z " /><path fill="rgb(217,19,56)" stroke="rgb(217,19,56)" stroke-width="1" opacity="0.23137254901960785" d="M 64.5 50 L 61.5 54 L 64.5 50 Z " /><path fill="rgb(217,19,56)" stroke="rgb(217,19,56)" stroke-width="1" opacity="0.23137254901960785" d="M 31.5 51 L 36 53.5 L 34.5 54 L 31.5 51 Z " /><path fill="rgb(217,19,56)" stroke="rgb(217,19,56)" stroke-width="1" opacity="0.23137254901960785" d="M 68.5 51 L 67.5 53 L 64.5 54 L 64.5 53 L 68.5 51 Z " /><path fill="rgb(217,19,56)" stroke="rgb(217,19,56)" stroke-width="1" opacity="0.23137254901960785" d="M 48.5 52 L 49 53.5 L 45.5 55 L 45.5 54 Q 49 55 48.5 52 Z " /><path fill="rgb(217,19,56)" stroke="rgb(217,19,56)" stroke-width="1" opacity="0.23137254901960785" d="M 50.5 52 L 51.5 54 L 50.5 52 Z " /><path fill="rgb(217,19,56)" stroke="rgb(217,19,56)" stroke-width="1" opacity="0.23137254901960785" d="M 25.5 53 L 28 53.5 L 25.5 54 L 25.5 53 Z " /><path fill="rgb(217,19,56)" stroke="rgb(217,19,56)" stroke-width="1" opacity="0.23137254901960785" d="M 72.5 53 L 75 53.5 L 72.5 54 L 72.5 53 Z " /><path fill="rgb(217,19,56)" stroke="rgb(217,19,56)" stroke-width="1" opacity="0.23137254901960785" d="M 18.5 54 L 21 54.5 L 18 55 L 20 58.5 L 17 56.5 L 18.5 54 Z " /><path fill="rgb(217,19,56)" stroke="rgb(217,19,56)" stroke-width="1" opacity="0.23137254901960785" d="M 79.5 54 L 83 55.5 L 80.5 59 L 82 56.5 Q 82.8 53.9 79.5 55 L 79.5 54 Z " /><path fill="rgb(217,19,56)" stroke="rgb(217,19,56)" stroke-width="1" opacity="0.23137254901960785" d="M 23.5 55 L 26 55.5 L 23.5 56 L 23.5 55 Z " /><path fill="rgb(217,19,56)" stroke="rgb(217,19,56)" stroke-width="1" opacity="0.23137254901960785" d="M 74.5 55 L 77 55.5 L 74.5 56 L 74.5 55 Z " /><path fill="rgb(217,19,56)" stroke="rgb(217,19,56)" stroke-width="1" opacity="0.23137254901960785" d="M 31.5 56 L 39 56.5 L 31.5 57 L 31.5 56 Z " /><path fill="rgb(217,19,56)" stroke="rgb(217,19,56)" stroke-width="1" opacity="0.23137254901960785" d="M 46.5 56 Q 49.1 55.3 48 58 L 45 57.5 L 46.5 56 Z " /><path fill="rgb(217,19,56)" stroke="rgb(217,19,56)" stroke-width="1" opacity="0.23137254901960785" d="M 52 56 L 55 57.5 L 52 58 L 52 56 Z " /><path fill="rgb(217,19,56)" stroke="rgb(217,19,56)" stroke-width="1" opacity="0.23137254901960785" d="M 61.5 56 L 69 56.5 L 61.5 57 L 61.5 56 Z " /><path fill="rgb(217,19,56)" stroke="rgb(217,19,56)" stroke-width="1" opacity="0.23137254901960785" d="M 39.5 58 L 42 58.5 L 39.5 59 L 39.5 58 Z " /><path fill="rgb(217,19,56)" stroke="rgb(217,19,56)" stroke-width="1" opacity="0.23137254901960785" d="M 58.5 58 L 61 58.5 L 58.5 59 L 58.5 58 Z " /><path fill="rgb(217,19,56)" stroke="rgb(217,19,56)" stroke-width="1" opacity="0.23137254901960785" d="M 31.5 59 L 36 59.5 L 31.5 60 L 31.5 59 Z " /><path fill="rgb(217,19,56)" stroke="rgb(217,19,56)" stroke-width="1" opacity="0.23137254901960785" d="M 64.5 59 L 69 59.5 L 64.5 60 L 64.5 59 Z " /><path fill="rgb(0,0,0)" stroke="rgb(0,0,0)" stroke-width="1" opacity="0" d="M 0 0 L 48 0.5 Q 41.5 9 40 22.5 L 49.5 34 L 52 32.5 L 60 22.5 L 60 18.5 L 52 0.5 L 100 0 L 100 38.5 L 98.5 39 L 88.5 34 L 83.5 33 L 77 45.5 L 69 53.5 L 74.5 54 Q 89.5 50.9 100 44 L 100 108.5 L 95 109 L 95 101.5 L 98 101 L 98 98 L 86 98 L 86 102.5 L 85 102.5 L 83 98 L 71 98 L 71 108.5 L 70 108.5 L 70 98 L 66 98 L 64.5 103 L 63 98 L 59 98 L 59 108.5 L 58 108.5 L 58 98.5 L 55 98 L 54.5 102 L 51.5 98 L 49 98.5 L 49 107.5 L 48 107.5 L 47 105.5 L 48 99 Q 45.9 97.4 40.5 98 L 38.5 98 L 29.5 98 L 28 99.5 L 26.5 103 L 25 98 Q 21.3 96.5 22 99.5 L 19.5 98 Q 14 97 13 100.5 L 12.5 103 L 9.5 98 Q 4.4 97.4 3 100.5 Q 2.3 106.6 4 109 L 0 108.5 L 0 44 L 14.5 51 L 25.5 54 L 30.5 54 L 23 45.5 L 16.5 33 L 0 39 L 0 0 Z M 32 2 L 30 15 L 39 20 L 42 9 L 36 2 L 32 2 Z M 65 2 L 58 9 L 61 20 L 70 15 L 68 4 Q 69 1 65 2 Z M 17 9 L 15 11 Q 15 34 26 48 L 35 54 L 39 54 Q 32 48 30 39 L 28 28 L 28 15 L 17 9 Z M 82 9 L 74 13 Q 69 15 72 17 L 71 35 Q 70 44 65 50 L 62 54 Q 68 55 71 51 Q 85 38 85 11 L 82 9 Z M 31 16 L 30 33 L 35 48 Q 38 53 46 55 L 49 54 L 47 48 L 49 40 L 49 36 L 43 27 L 31 16 Z M 70 16 L 62 22 Q 52 29 49 42 Q 48 49 50 53 L 54 55 L 60 53 L 67 44 L 70 32 L 70 16 Z M 5 21 L 3 23 L 3 26 L 8 34 L 16 32 L 15 24 L 14 22 L 5 21 Z M 92 21 L 85 22 L 84 32 L 92 34 L 97 26 L 97 23 Q 96 20 92 21 Z M 19 54 L 17 57 L 22 60 Q 35 62 43 58 Q 49 60 48 56 L 27 56 L 19 54 Z M 80 54 L 74 56 L 53 56 L 52 58 L 65 60 L 79 60 L 81 59 L 83 56 L 80 54 Z M 43 63 L 38 65 L 33 71 L 34 79 L 39 82 L 49 84 L 51 87 L 49 90 Q 42 91 40 88 L 40 86 L 32 86 L 33 91 L 41 96 L 52 96 L 57 93 L 59 89 L 58 82 L 53 77 L 45 76 L 41 74 L 43 70 Q 50 69 51 73 L 52 74 L 58 74 L 58 70 L 56 66 L 49 63 L 43 63 Z M 3 64 L 3 96 L 4 96 L 11 96 L 12 78 L 22 94 Q 24 98 31 96 L 31 65 L 31 64 L 23 64 L 23 81 L 12 66 L 11 64 L 3 64 Z M 58 64 L 67 95 L 68 96 L 73 96 L 76 84 L 79 79 L 83 94 L 83 96 L 89 96 L 91 92 L 98 68 L 98 64 L 91 64 L 87 81 L 85 80 L 81 66 L 81 64 L 75 64 L 71 81 L 66 66 L 65 64 L 58 64 Z " /><path fill="rgb(0,0,0)" stroke="rgb(0,0,0)" stroke-width="1" opacity="0" d="M 31.5 100 L 32 109 Q 27.9 110.7 29 106.5 L 31.5 100 Z " /><path fill="rgb(0,0,0)" stroke="rgb(0,0,0)" stroke-width="1" opacity="0" d="M 7.5 101 L 8.5 103 Q 5.9 102.2 7 105.5 L 6 105.5 Q 5.3 101.8 7.5 101 Z " /><path fill="rgb(0,0,0)" stroke="rgb(0,0,0)" stroke-width="1" opacity="0" d="M 17.5 101 Q 20 102.2 19 106 Q 14.5 107.8 16 102.5 L 17.5 101 Z " /><path fill="rgb(0,0,0)" stroke="rgb(0,0,0)" stroke-width="1" opacity="0" d="M 35.5 101 L 40 101 L 40 106 L 35 105.5 L 39 105 Q 40.8 100.5 35.5 102 L 35.5 101 Z " /><path fill="rgb(0,0,0)" stroke="rgb(0,0,0)" stroke-width="1" opacity="0" d="M 43 101 Q 46 100 45 103 Q 42 104 43 101 Z " /><path fill="rgb(0,0,0)" stroke="rgb(0,0,0)" stroke-width="1" opacity="0" d="M 74.5 101 L 79 101 L 79 106 L 74 105.5 L 78 105 Q 79.8 100.5 74.5 102 L 74.5 101 Z " /><path fill="rgb(0,0,0)" stroke="rgb(0,0,0)" stroke-width="1" opacity="0" d="M 89 101 L 92 101 L 92 109 L 89 109 L 89 101 Z " /><path fill="rgb(0,0,0)" stroke="rgb(0,0,0)" stroke-width="1" opacity="0" d="M 12.5 105 L 14 108.5 L 12 109 L 12.5 105 Z " /><path fill="rgb(0,0,0)" stroke="rgb(0,0,0)" stroke-width="1" opacity="0" d="M 22 105 Q 25 103.8 24 107.5 L 24.5 109 L 21 108.5 L 22 105 Z " /><path fill="rgb(0,0,0)" stroke="rgb(0,0,0)" stroke-width="1" opacity="0" d="M 52.5 105 L 55 108.5 L 52 109 L 52.5 105 Z " /><path fill="rgb(0,0,0)" stroke="rgb(0,0,0)" stroke-width="1" opacity="0" d="M 43.5 106 L 45 109 Q 41.5 110.1 43.5 106 Z " /><path fill="rgb(0,0,0)" stroke="rgb(0,0,0)" stroke-width="1" opacity="0" d="M 62.5 106 L 63 108.5 L 62 108.5 L 62.5 106 Z " /><path fill="rgb(0,0,0)" stroke="rgb(0,0,0)" stroke-width="1" opacity="0" d="M 83.5 106 L 85 109 Q 81.5 110.1 83.5 106 Z " /><path fill="rgb(214,20,57)" stroke="rgb(214,20,57)" stroke-width="1" opacity="0.996078431372549" d="M 63.5 17 L 62.5 19 L 63.5 17 Z " /><path fill="rgb(214,20,57)" stroke="rgb(214,20,57)" stroke-width="1" opacity="0.996078431372549" d="M 54.5 26 L 53.5 28 L 54.5 26 Z " /><path fill="rgb(214,20,57)" stroke="rgb(214,20,57)" stroke-width="1" opacity="0.996078431372549" d="M 8.5 31 L 9.5 33 L 8.5 31 Z " /><path fill="rgb(214,20,57)" stroke="rgb(214,20,57)" stroke-width="1" opacity="0.996078431372549" d="M 91.5 31 L 90.5 33 L 91.5 31 Z " /><path fill="rgb(214,20,57)" stroke="rgb(214,20,57)" stroke-width="1" opacity="0.996078431372549" d="M 46.5 46 L 47 48.5 L 46 48.5 L 46.5 46 Z " /><path fill="rgb(214,20,57)" stroke="rgb(214,20,57)" stroke-width="1" opacity="0.996078431372549" d="M 38.5 49 L 40.5 52 L 38.5 49 Z " /><path fill="rgb(214,20,57)" stroke="rgb(214,20,57)" stroke-width="1" opacity="0.996078431372549" d="M 61.5 49 L 59.5 52 L 61.5 49 Z " /><path fill="rgb(214,20,57)" stroke="rgb(214,20,57)" stroke-width="1" opacity="0.996078431372549" d="M 34.5 50 Q 37.5 51.5 34.5 53 L 34.5 50 Z " /><path fill="rgb(214,20,57)" stroke="rgb(214,20,57)" stroke-width="1" opacity="0.996078431372549" d="M 65.5 50 L 65.5 53 Q 62.5 51.5 65.5 50 Z " /><path fill="rgb(214,20,57)" stroke="rgb(214,20,57)" stroke-width="1" opacity="0.996078431372549" d="M 18.5 56 L 19.5 58 L 18.5 56 Z " /><path fill="rgb(215,21,58)" stroke="rgb(215,21,58)" stroke-width="1" opacity="1" d="M 49.5 1 L 52 2.5 L 55 7.5 L 59 21.5 Q 53 25.4 51 32 Q 48.3 33.1 49 30.5 L 41 21.5 L 41 19.5 Q 43.7 8.7 49.5 1 Z " /><path fill="rgb(215,21,58)" stroke="rgb(215,21,58)" stroke-width="1" opacity="1" d="M 33.5 3 Q 38.5 2.5 39 6.5 L 41 9.5 L 38 18 L 31 13.5 L 32 4.5 L 33.5 3 Z " /><path fill="rgb(215,21,58)" stroke="rgb(215,21,58)" stroke-width="1" opacity="1" d="M 64.5 3 Q 67.8 1.9 67 4.5 L 69 13.5 L 62.5 18 L 59 8 L 61 8 L 61 6 Q 63.7 7.1 63 4.5 L 64.5 3 Z " /><path fill="rgb(215,21,58)" stroke="rgb(215,21,58)" stroke-width="1" opacity="1" d="M 16 10 L 24.5 13 L 27 15.5 L 28 35.5 Q 29.6 45.9 35.5 52 L 37 52.5 L 35.5 53 L 26 45.5 L 21 37.5 L 17 25.5 L 16 10 Z " /><path fill="rgb(215,21,58)" stroke="rgb(215,21,58)" stroke-width="1" opacity="1" d="M 82.5 10 L 84 10.5 L 84 18.5 L 80 34.5 Q 76.3 44.8 68.5 51 L 63.5 53 L 63.5 52 L 66 50.5 L 71 39.5 L 72 28.5 L 73 27.5 L 73 15.5 L 75.5 13 L 82.5 10 Z " /><path fill="rgb(215,21,58)" stroke="rgb(215,21,58)" stroke-width="1" opacity="1" d="M 31.5 18 L 43 28.5 L 48 38.5 L 46 44.5 L 46 46.5 L 48 52.5 Q 46.8 55.3 45.5 53 L 37 49 L 31 31.5 L 31.5 18 Z " /><path fill="rgb(215,21,58)" stroke="rgb(215,21,58)" stroke-width="1" opacity="1" d="M 68.5 18 L 69 31.5 L 66 43.5 L 63 49 L 56.5 53 L 52.5 53 Q 48 51 50 42.5 Q 54.1 27.6 65.5 20 L 68.5 18 Z " /><path fill="rgb(215,21,58)" stroke="rgb(215,21,58)" stroke-width="1" opacity="1" d="M 5.5 22 L 14 23 L 15 31 L 9.5 32 L 4 25.5 L 4 23.5 L 5.5 22 Z " /><path fill="rgb(215,21,58)" stroke="rgb(215,21,58)" stroke-width="1" opacity="1" d="M 92.5 22 L 96 23.5 L 90.5 32 L 85 31 L 86 23 L 92.5 22 Z " /><path fill="rgb(215,21,58)" stroke="rgb(215,21,58)" stroke-width="1" opacity="1" d="M 15.5 34 Q 18.1 33.2 17 36.5 Q 20.7 46.3 28 52.5 L 25.5 53 Q 11 50 1 42.5 Q -0.1 39.2 2.5 40 L 15.5 34 Z " /><path fill="rgb(215,21,58)" stroke="rgb(215,21,58)" stroke-width="1" opacity="1" d="M 83 34 L 88.5 35 L 99 40 Q 100.5 43.7 97.5 43 Q 87.9 50.9 72.5 53 L 76 48.5 Q 81.8 42.6 83 34 Z " /><path fill="rgb(215,21,58)" stroke="rgb(215,21,58)" stroke-width="1" opacity="1" d="M 18.5 55 Q 28.1 58.4 42 57.5 L 34.5 59 L 21.5 59 L 18.5 55 Z " /><path fill="rgb(215,21,58)" stroke="rgb(215,21,58)" stroke-width="1" opacity="1" d="M 80.5 55 L 82 55.5 L 81 58 Q 75.8 60.2 65.5 59 L 58 57.5 L 73.5 57 L 80.5 55 Z " /><path fill="rgb(0,37,99)" stroke="rgb(0,37,99)" stroke-width="1" opacity="0.9803921568627451" d="M 4 64 Q 9.4 62.5 11 65.5 L 23.5 84 L 24 64 L 29.5 64 L 30 64.5 L 30 95 Q 24.6 96.5 23 93.5 L 10.5 75 L 10 95 L 4.5 95 L 4 94.5 L 4 64 Z " /><path fill="rgb(0,37,99)" stroke="rgb(0,37,99)" stroke-width="1" opacity="0.9803921568627451" d="M 41.5 64 Q 53.6 62.4 57 69.5 L 58 72.5 L 51 73 L 48.5 69 Q 41.5 67.5 40 71.5 Q 39.5 75.5 42.5 76 Q 52.5 76 57 81.5 L 58 89.5 Q 54.4 96.4 43.5 96 Q 36.1 94.9 33 89.5 L 33 86 L 39 86 L 41.5 90 L 47.5 91 L 52 87.5 L 49.5 84 L 37.5 81 L 34 77.5 Q 32 68 37.5 66 L 41.5 64 Z " /><path fill="rgb(0,37,99)" stroke="rgb(0,37,99)" stroke-width="1" opacity="0.9803921568627451" d="M 59 64 Q 63.6 62.8 65 65.5 L 68 78.5 L 70.5 83 L 76 64 Q 79.8 63 81 65.5 L 85 83 Q 88 84.3 87 80.5 L 91 65.5 L 92.5 64 Q 97 63 98 65.5 L 89 95 Q 84.4 96.3 83 93.5 L 78.5 76 L 77 77.5 L 73 95 L 67 95 L 67 92.5 L 59 64 Z " /><path fill="rgb(0,37,99)" stroke="rgb(0,37,99)" stroke-width="1" opacity="0.9803921568627451" d="M 5.5 99 Q 10 98 11 100.5 Q 11.8 102.8 9.5 102 L 6.5 101 L 5 104.5 L 6 107 Q 9.7 108.5 9 105.5 L 8.5 104 Q 14.2 102.4 12 108 L 6.5 109 Q 2.3 108.3 3 102.5 L 5.5 99 Z " /><path fill="rgb(0,37,99)" stroke="rgb(0,37,99)" stroke-width="1" opacity="0.9803921568627451" d="M 15.5 99 Q 20 98 21 100.5 L 22 105.5 L 21 108 L 16.5 109 L 14 108 L 13 102.5 L 15.5 99 Z M 18 100 L 15 103 Q 14 106 17 107 L 20 106 Q 21 101 18 100 Z " /><path fill="rgb(0,37,99)" stroke="rgb(0,37,99)" stroke-width="1" opacity="0.9803921568627451" d="M 23.5 99 L 26.5 105 L 29 99 Q 31.7 97.9 31 100.5 L 26.5 109 L 23 101.5 L 23.5 99 Z " /><path fill="rgb(0,37,99)" stroke="rgb(0,37,99)" stroke-width="1" opacity="0.9803921568627451" d="M 32 99 L 38.5 99 L 39 101 L 34 101 L 34 103 Q 39.2 101.3 38 105 Q 32.8 103.3 34 107 L 39 107 L 39 109 Q 33.6 110.5 32 107.5 L 32 99 Z " /><path fill="rgb(0,37,99)" stroke="rgb(0,37,99)" stroke-width="1" opacity="0.9803921568627451" d="M 41 99 Q 46.4 97.5 48 100.5 L 46.5 109 L 45 105 Q 40.5 103.3 42 108.5 L 41 108.5 L 41 99 Z M 44 100 L 42 103 Q 47 105 46 101 L 44 100 Z " /><path fill="rgb(0,37,99)" stroke="rgb(0,37,99)" stroke-width="1" opacity="0.9803921568627451" d="M 50 99 L 53 100.5 L 55.5 104 L 56 99 L 58 99.5 L 58 107.5 Q 56.5 110.5 55 107.5 L 52.5 103 Q 53.1 107.6 50.5 109 L 50 99 Z " /><path fill="rgb(0,37,99)" stroke="rgb(0,37,99)" stroke-width="1" opacity="0.9803921568627451" d="M 60 99 Q 64.1 97.3 63 101.5 L 64.5 105 L 67.5 99 L 70 99.5 L 70 107.5 L 68 108.5 L 67.5 103 L 64.5 109 L 62.5 104 L 60.5 109 L 60 99 Z " /><path fill="rgb(0,37,99)" stroke="rgb(0,37,99)" stroke-width="1" opacity="0.9803921568627451" d="M 72 99 L 78 99 L 78 101 Q 72.8 99.3 74 103 L 78 103.5 L 74 105 L 74 107 Q 79.2 105.3 78 109 L 72 109 L 72 99 Z " /><path fill="rgb(0,37,99)" stroke="rgb(0,37,99)" stroke-width="1" opacity="0.9803921568627451" d="M 80 99 L 84 101.5 L 85.5 104 L 86 99 L 88 99.5 L 88 108.5 L 84 105.5 L 82.5 103 L 82 109 L 80 108.5 L 80 99 Z " /><path fill="rgb(0,37,99)" stroke="rgb(0,37,99)" stroke-width="1" opacity="0.9803921568627451" d="M 89 99 L 96.5 99 L 97 101 L 94 101 L 94 108.5 L 92 107.5 L 92 101 Q 87.9 102.3 89 99 Z " /><path fill="rgb(0,38,100)" stroke="rgb(0,38,100)" stroke-width="1" opacity="0.3568627450980392" d="M 44.5 63 L 47 63.5 L 44.5 64 L 44.5 63 Z " /><path fill="rgb(0,38,100)" stroke="rgb(0,38,100)" stroke-width="1" opacity="0.3568627450980392" d="M 3.5 64 L 4 95 L 10 95.5 L 4.5 96 L 3 94.5 L 3.5 64 Z " /><path fill="rgb(0,38,100)" stroke="rgb(0,38,100)" stroke-width="1" opacity="0.3568627450980392" d="M 23.5 64 L 24 83.5 L 22 82.5 L 23 81.5 L 23.5 64 Z " /><path fill="rgb(0,38,100)" stroke="rgb(0,38,100)" stroke-width="1" opacity="0.3568627450980392" d="M 30.5 65 L 31 94.5 Q 29.8 97.3 24.5 96 L 23.5 94 L 30 95 L 30.5 65 Z " /><path fill="rgb(0,38,100)" stroke="rgb(0,38,100)" stroke-width="1" opacity="0.3568627450980392" d="M 53.5 65 L 56.5 69 L 53.5 65 Z " /><path fill="rgb(0,38,100)" stroke="rgb(0,38,100)" stroke-width="1" opacity="0.3568627450980392" d="M 11.5 66 L 12.5 68 L 11.5 66 Z " /><path fill="rgb(0,38,100)" stroke="rgb(0,38,100)" stroke-width="1" opacity="0.3568627450980392" d="M 36.5 66 L 34.5 69 L 36.5 66 Z " /><path fill="rgb(0,38,100)" stroke="rgb(0,38,100)" stroke-width="1" opacity="0.3568627450980392" d="M 13.5 69 L 14.5 71 L 13.5 69 Z " /><path fill="rgb(0,38,100)" stroke="rgb(0,38,100)" stroke-width="1" opacity="0.3568627450980392" d="M 42.5 69 L 45 69.5 L 41 71.5 L 40.5 74 L 40 71.5 L 42.5 69 Z " /><path fill="rgb(0,38,100)" stroke="rgb(0,38,100)" stroke-width="1" opacity="0.3568627450980392" d="M 33.5 70 L 34 75.5 L 33 75.5 L 33.5 70 Z " /><path fill="rgb(0,38,100)" stroke="rgb(0,38,100)" stroke-width="1" opacity="0.3568627450980392" d="M 15.5 72 L 16.5 74 L 15.5 72 Z " /><path fill="rgb(0,38,100)" stroke="rgb(0,38,100)" stroke-width="1" opacity="0.3568627450980392" d="M 51.5 73 L 58 73.5 L 51.5 74 L 51.5 73 Z " /><path fill="rgb(0,38,100)" stroke="rgb(0,38,100)" stroke-width="1" opacity="0.3568627450980392" d="M 10.5 75 L 11.5 77 L 10.5 75 Z " /><path fill="rgb(0,38,100)" stroke="rgb(0,38,100)" stroke-width="1" opacity="0.3568627450980392" d="M 78.5 76 L 79 77.5 L 77 78.5 L 78.5 76 Z " /><path fill="rgb(0,38,100)" stroke="rgb(0,38,100)" stroke-width="1" opacity="0.3568627450980392" d="M 12.5 78 L 13.5 80 L 12.5 78 Z " /><path fill="rgb(0,38,100)" stroke="rgb(0,38,100)" stroke-width="1" opacity="0.3568627450980392" d="M 20.5 79 L 21.5 81 L 20.5 79 Z " /><path fill="rgb(0,38,100)" stroke="rgb(0,38,100)" stroke-width="1" opacity="0.3568627450980392" d="M 55.5 79 L 56.5 81 L 55.5 79 Z " /><path fill="rgb(0,38,100)" stroke="rgb(0,38,100)" stroke-width="1" opacity="0.3568627450980392" d="M 69.5 80 L 71 82.5 L 69 81.5 L 69.5 80 Z " /><path fill="rgb(0,38,100)" stroke="rgb(0,38,100)" stroke-width="1" opacity="0.3568627450980392" d="M 14.5 81 L 15.5 83 L 14.5 81 Z " /><path fill="rgb(0,38,100)" stroke="rgb(0,38,100)" stroke-width="1" opacity="0.3568627450980392" d="M 85 81 Q 88 80 87 83 Q 84 84 85 81 Z " /><path fill="rgb(0,38,100)" stroke="rgb(0,38,100)" stroke-width="1" opacity="0.3568627450980392" d="M 39.5 86 L 42 89.5 L 39 87.5 L 39.5 86 Z " /><path fill="rgb(0,38,100)" stroke="rgb(0,38,100)" stroke-width="1" opacity="0.3568627450980392" d="M 19.5 88 L 20.5 90 L 19.5 88 Z " /><path fill="rgb(0,38,100)" stroke="rgb(0,38,100)" stroke-width="1" opacity="0.3568627450980392" d="M 33.5 90 L 36.5 94 L 33.5 90 Z " /><path fill="rgb(0,38,100)" stroke="rgb(0,38,100)" stroke-width="1" opacity="0.3568627450980392" d="M 43.5 90 L 48 90.5 L 43.5 91 L 43.5 90 Z " /><path fill="rgb(0,38,100)" stroke="rgb(0,38,100)" stroke-width="1" opacity="0.3568627450980392" d="M 57.5 90 L 54.5 94 L 57.5 90 Z " /><path fill="rgb(0,38,100)" stroke="rgb(0,38,100)" stroke-width="1" opacity="0.3568627450980392" d="M 21.5 91 L 22.5 93 L 21.5 91 Z " /><path fill="rgb(0,38,100)" stroke="rgb(0,38,100)" stroke-width="1" opacity="0.3568627450980392" d="M 83.5 94 L 89 95.5 L 84.5 96 L 83.5 94 Z " /><path fill="rgb(0,38,100)" stroke="rgb(0,38,100)" stroke-width="1" opacity="0.3568627450980392" d="M 48.5 95 L 51 95.5 L 48.5 96 L 48.5 95 Z " /><path fill="rgb(0,38,100)" stroke="rgb(0,38,100)" stroke-width="1" opacity="0.3568627450980392" d="M 67.5 95 L 72 95.5 L 67.5 96 L 67.5 95 Z " /><path fill="rgb(0,38,100)" stroke="rgb(0,38,100)" stroke-width="1" opacity="0.3568627450980392" d="M 6.5 98 L 9 98.5 L 6.5 99 L 6.5 98 Z " /><path fill="rgb(0,38,100)" stroke="rgb(0,38,100)" stroke-width="1" opacity="0.3568627450980392" d="M 16.5 98 L 19 98.5 L 16.5 99 L 16.5 98 Z " /><path fill="rgb(0,38,100)" stroke="rgb(0,38,100)" stroke-width="1" opacity="0.3568627450980392" d="M 10.5 99 Q 13 100.2 12 104 L 7.5 105 L 7 103 L 11 102 L 10.5 99 Z " /><path fill="rgb(0,38,100)" stroke="rgb(0,38,100)" stroke-width="1" opacity="0.3568627450980392" d="M 14.5 99 L 14 100.5 L 13.5 102 L 13 100.5 L 14.5 99 Z " /><path fill="rgb(0,38,100)" stroke="rgb(0,38,100)" stroke-width="1" opacity="0.3568627450980392" d="M 20.5 99 L 23 99.5 L 21.5 102 L 20.5 99 Z " /><path fill="rgb(0,38,100)" stroke="rgb(0,38,100)" stroke-width="1" opacity="0.3568627450980392" d="M 40.5 99 L 41 108.5 L 40 108.5 L 40.5 99 Z " /><path fill="rgb(0,38,100)" stroke="rgb(0,38,100)" stroke-width="1" opacity="0.3568627450980392" d="M 49.5 99 L 50 108.5 L 49 108.5 L 49.5 99 Z " /><path fill="rgb(0,38,100)" stroke="rgb(0,38,100)" stroke-width="1" opacity="0.3568627450980392" d="M 55.5 99 L 56 103.5 L 53 101.5 L 55 101.5 L 55.5 99 Z " /><path fill="rgb(0,38,100)" stroke="rgb(0,38,100)" stroke-width="1" opacity="0.3568627450980392" d="M 59.5 99 L 60 108.5 L 59 108.5 L 59.5 99 Z " /><path fill="rgb(0,38,100)" stroke="rgb(0,38,100)" stroke-width="1" opacity="0.3568627450980392" d="M 71.5 99 L 72 108.5 L 71 108.5 L 71.5 99 Z " /><path fill="rgb(0,38,100)" stroke="rgb(0,38,100)" stroke-width="1" opacity="0.3568627450980392" d="M 78 99 L 80 99.5 L 80 107.5 L 78 108.5 Q 78.9 105.5 74.5 107 L 74.5 106 L 78.5 107 L 79 101.5 L 78 99 Z " /><path fill="rgb(0,38,100)" stroke="rgb(0,38,100)" stroke-width="1" opacity="0.3568627450980392" d="M 82.5 99 L 83.5 101 L 82.5 99 Z " /><path fill="rgb(0,38,100)" stroke="rgb(0,38,100)" stroke-width="1" opacity="0.3568627450980392" d="M 88.5 99 L 89 108.5 L 88 108.5 L 88.5 99 Z " /><path fill="rgb(0,38,100)" stroke="rgb(0,38,100)" stroke-width="1" opacity="0.3568627450980392" d="M 43.5 100 L 43 101.5 L 42.5 103 L 42 101.5 L 43.5 100 Z " /><path fill="rgb(0,38,100)" stroke="rgb(0,38,100)" stroke-width="1" opacity="0.3568627450980392" d="M 34.5 101 L 39 103.5 L 38.5 105 L 38 103 Q 32.4 104.7 34.5 101 Z " /><path fill="rgb(0,38,100)" stroke="rgb(0,38,100)" stroke-width="1" opacity="0.3568627450980392" d="M 94.5 101 L 95 108.5 L 94 108.5 L 94.5 101 Z " /><path fill="rgb(0,38,100)" stroke="rgb(0,38,100)" stroke-width="1" opacity="0.3568627450980392" d="M 5.5 102 L 6 104.5 L 5 104.5 L 5.5 102 Z " /><path fill="rgb(0,38,100)" stroke="rgb(0,38,100)" stroke-width="1" opacity="0.3568627450980392" d="M 15.5 102 L 17 106.5 L 15 105.5 L 15.5 102 Z " /><path fill="rgb(0,38,100)" stroke="rgb(0,38,100)" stroke-width="1" opacity="0.3568627450980392" d="M 19.5 102 L 20 105.5 L 18 106.5 L 19.5 102 Z " /><path fill="rgb(0,38,100)" stroke="rgb(0,38,100)" stroke-width="1" opacity="0.3568627450980392" d="M 27.5 102 L 28 103.5 L 26 104.5 L 27.5 102 Z " /><path fill="rgb(0,38,100)" stroke="rgb(0,38,100)" stroke-width="1" opacity="0.3568627450980392" d="M 65.5 102 L 65 103.5 L 64.5 105 L 64 103.5 L 65.5 102 Z " /><path fill="rgb(0,38,100)" stroke="rgb(0,38,100)" stroke-width="1" opacity="0.3568627450980392" d="M 74.5 102 L 78 102.5 L 74.5 103 L 74.5 102 Z " /><path fill="rgb(0,38,100)" stroke="rgb(0,38,100)" stroke-width="1" opacity="0.3568627450980392" d="M 84.5 102 L 85.5 104 L 84.5 102 Z " /><path fill="rgb(0,38,100)" stroke="rgb(0,38,100)" stroke-width="1" opacity="0.3568627450980392" d="M 67.5 103 L 68 108.5 L 67 108.5 L 66 105.5 L 67.5 103 Z " /><path fill="rgb(0,38,100)" stroke="rgb(0,38,100)" stroke-width="1" opacity="0.3568627450980392" d="M 82.5 103 L 83.5 105 L 82.5 103 Z " /><path fill="rgb(0,38,100)" stroke="rgb(0,38,100)" stroke-width="1" opacity="0.3568627450980392" d="M 34.5 105 L 39 106.5 L 34 107 L 34.5 105 Z " /><path fill="rgb(0,38,100)" stroke="rgb(0,38,100)" stroke-width="1" opacity="0.3568627450980392" d="M 42.5 105 L 43 108.5 L 42 108.5 L 42.5 105 Z " /><path fill="rgb(0,38,100)" stroke="rgb(0,38,100)" stroke-width="1" opacity="0.3568627450980392" d="M 53.5 105 L 54.5 107 L 53.5 105 Z " /><path fill="rgb(0,38,100)" stroke="rgb(0,38,100)" stroke-width="1" opacity="0.3568627450980392" d="M 3.5 106 L 5.5 109 L 3.5 106 Z " /><path fill="rgb(0,38,100)" stroke="rgb(0,38,100)" stroke-width="1" opacity="0.3568627450980392" d="M 6.5 106 L 9 106.5 L 6.5 107 L 6.5 106 Z " /><path fill="rgb(0,38,100)" stroke="rgb(0,38,100)" stroke-width="1" opacity="0.3568627450980392" d="M 28.5 106 L 29 107.5 L 27 108.5 L 28.5 106 Z " /><path fill="rgb(0,38,100)" stroke="rgb(0,38,100)" stroke-width="1" opacity="0.3568627450980392" d="M 47.5 106 L 48 108.5 L 47 108.5 L 47.5 106 Z " /><path fill="rgb(0,38,100)" stroke="rgb(0,38,100)" stroke-width="1" opacity="0.3568627450980392" d="M 84.5 106 L 86.5 109 L 84.5 106 Z " /><path fill="rgb(0,38,100)" stroke="rgb(0,38,100)" stroke-width="1" opacity="0.3568627450980392" d="M 9.5 108 L 12 108.5 L 9.5 109 L 9.5 108 Z " /></svg>